HIERARCHY
ROOT Hips
{
 OFFSET 0.000000 0.000000 0.000000
 CHANNELS 6 Xposition Yposition Zposition Yrotation Xrotation Zrotation
 JOINT Chest
 {
  OFFSET 0.000000 9.585900 0.002600
  CHANNELS 3 Yrotation Xrotation Zrotation
  JOINT Chest2
  {
   OFFSET 0.000000 9.601200 -0.005300
   CHANNELS 3 Yrotation Xrotation Zrotation
   JOINT Chest3
   {
    OFFSET 0.000000 9.561800 0.000000
    CHANNELS 3 Yrotation Xrotation Zrotation
    JOINT Chest4
    {
     OFFSET 0.000000 9.552100 0.000000
     CHANNELS 3 Yrotation Xrotation Zrotation
     JOINT Neck
     {
      OFFSET 0.000000 14.453000 0.000000
      CHANNELS 3 Yrotation Xrotation Zrotation
      JOINT Head
      {
       OFFSET 0.000000 8.936500 -0.011300
       CHANNELS 3 Yrotation Xrotation Zrotation
       End Site
       {
        OFFSET 0.000000 17.073600 -0.006000
       }
      }
     }
     JOINT RightCollar
     {
      OFFSET -2.921100 9.558500 0.000000
      CHANNELS 3 Yrotation Xrotation Zrotation
      JOINT RightShoulder
      {
       OFFSET -13.519700 0.000000 0.000000
       CHANNELS 3 Yrotation Xrotation Zrotation
       JOINT RightElbow
       {
        OFFSET 0.000000 -29.696600 0.000000
        CHANNELS 3 Yrotation Xrotation Zrotation
        JOINT RightWrist
        {
         OFFSET 0.000000 -24.004700 0.000000
         CHANNELS 3 Yrotation Xrotation Zrotation
         End Site
         {
          OFFSET 0.000000 -17.728500 0.000000
         }
        }
       }
      }
     }
     JOINT LeftCollar
     {
      OFFSET 2.921100 9.558500 0.000000
      CHANNELS 3 Yrotation Xrotation Zrotation
      JOINT LeftShoulder
      {
       OFFSET 13.519700 0.000000 0.000000
       CHANNELS 3 Yrotation Xrotation Zrotation
       JOINT LeftElbow
       {
        OFFSET 0.000000 -29.696600 0.000000
        CHANNELS 3 Yrotation Xrotation Zrotation
        JOINT LeftWrist
        {
         OFFSET 0.000000 -24.004700 0.000000
         CHANNELS 3 Yrotation Xrotation Zrotation
         End Site
         {
          OFFSET 0.000000 -17.728500 0.000000
         }
        }
       }
      }
     }
    }
   }
  }
 }
 JOINT RightHip
 {
  OFFSET -7.771700 -0.012900 -0.001300
  CHANNELS 3 Yrotation Xrotation Zrotation
  JOINT RightKnee
  {
   OFFSET 0.000000 -40.869800 0.001200
   CHANNELS 3 Yrotation Xrotation Zrotation
   JOINT RightAnkle
   {
    OFFSET 0.000000 -39.717900 0.002100
    CHANNELS 3 Yrotation Xrotation Zrotation
    JOINT RightToe
    {
     OFFSET 0.000000 -4.965400 11.033500
     CHANNELS 3 Yrotation Xrotation Zrotation
     End Site
     {
      OFFSET 0.000000 -1.423100 5.872300
     }
    }
   }
  }
 }
 JOINT LeftHip
 {
  OFFSET 7.771700 -0.012900 -0.001300
  CHANNELS 3 Yrotation Xrotation Zrotation
  JOINT LeftKnee
  {
   OFFSET 0.000000 -40.869800 0.001200
   CHANNELS 3 Yrotation Xrotation Zrotation
   JOINT LeftAnkle
   {
    OFFSET 0.000000 -39.717900 0.002100
    CHANNELS 3 Yrotation Xrotation Zrotation
    JOINT LeftToe
    {
     OFFSET 0.000000 -4.965400 11.033500
     CHANNELS 3 Yrotation Xrotation Zrotation
     End Site
     {
      OFFSET 0.000000 -1.423100 5.872300
     }
    }
   }
  }
 }
}
MOTION
Frames: 11
Frame Time: 0.008333
0.000000 85.388000 0.000000 0.000000 -5.767877 0.000000 0.000000 11.653817 0.000000 0.000000 -5.885947 0.000000 0.000000 -0.000000 0.000000 0.000000 -0.000000 0.000000 0.000000 12.528835 0.000000 0.000000 0.711642 0.000000 0.000000 -0.000000 0.000000 0.000000 0.000000 -90.000000 0.000000 -2.309062 0.000000 0.000000 2.309062 0.000000 0.000000 -0.000000 0.000000 0.000000 -0.000000 90.000000 0.000000 -2.309062 0.000000 0.000000 2.309062 0.000000 0.000000 8.520406 0.000000 0.000000 1.905762 0.000000 -0.000000 -4.658285 0.000000 0.000000 -0.000000 0.000000 0.000000 8.520406 0.000000 0.000000 1.905762 0.000000 -0.000000 -4.658285 0.000000 0.000000 -0.000000 0.000000
-26.926579 57.962859 13.278528 178.372410 -50.147169 -3.627838 3.385605 22.479411 2.966814 1.735642 12.872293 1.501394 2.262941 16.087726 1.940015 1.745013 12.872055 1.501586 -3.366365 16.272355 3.673543 -7.488376 -5.224449 7.940402 0.149750 7.925031 -1.783802 -26.592879 -10.458562 4.623157 -67.754932 -26.529955 118.156509 -11.346181 -26.760501 -35.305038 -7.433450 4.745450 1.776419 20.927293 -7.786446 -0.504711 73.728448 -28.487290 -107.985227 26.695220 -27.678224 19.210232 2.546551 -21.343052 -3.589917 -33.564108 73.281882 -37.604057 6.262470 -13.418910 11.560871 0.005913 -0.030455 0.005410 -5.802435 -18.985072 5.902764 85.887304 83.097859 85.052331 0.553304 -21.840419 -16.704169 0.004458 0.017148 0.008610
-26.927640 57.963908 13.276928 178.377981 -50.153183 -3.630646 3.372986 22.481672 2.970462 1.733979 12.874814 1.497602 2.224184 16.079839 1.958782 1.748385 12.878226 1.482275 -3.157234 16.313527 3.596981 -7.084943 -5.176204 7.727686 0.215256 7.891123 -1.751570 -26.431261 -10.511342 4.538279 -67.697900 -26.419959 118.126335 -11.353104 -26.776586 -35.350669 -7.475669 4.713534 1.709416 20.733453 -7.828348 -0.441248 73.745115 -28.416955 -107.927085 26.698526 -27.702215 19.307382 2.555546 -21.328342 -3.604245 -33.550697 73.281367 -37.575434 6.280568 -13.426465 11.558446 -0.001506 -0.028807 0.002593 -5.770339 -18.981146 5.906147 85.904567 83.116404 85.088508 0.543085 -21.847852 -16.691961 0.008988 0.015545 0.010731
-26.929505 57.964699 13.275374 178.383797 -50.157731 -3.629600 3.363318 22.484587 2.967088 1.730094 12.875326 1.498631 2.214382 16.075474 1.964740 1.723890 12.875162 1.499633 -2.933371 16.357326 3.497814 -6.663363 -5.126068 7.506621 0.262108 7.883293 -1.766742 -26.265559 -10.562123 4.495008 -67.630146 -26.307155 118.097325 -11.361429 -26.793004 -35.396195 -7.513544 4.686352 1.627644 20.537961 -7.874658 -0.385106 73.757829 -28.335653 -107.866121 26.708611 -27.725761 19.400945 2.557604 -21.320683 -3.612893 -33.551089 73.280222 -37.573260 6.274565 -13.424539 11.561450 0.008484 -0.030085 0.001969 -5.756287 -18.978592 5.901549 85.936649 83.117716 85.128432 0.531553 -21.850132 -16.685896 0.012846 0.012500 0.010379
-26.930778 57.966176 13.273313 178.382296 -50.168030 -3.626677 3.360329 22.492335 2.967429 1.715176 12.866002 1.508790 2.218944 16.082202 1.956144 1.724434 12.880457 1.493094 -2.714221 16.392861 3.430889 -6.225779 -5.072987 7.279383 0.285079 7.866426 -1.747620 -26.112580 -10.602958 4.460460 -67.549944 -26.194516 118.069079 -11.374157 -26.809333 -35.436699 -7.574277 4.655105 1.584245 20.338906 -7.920930 -0.332549 73.772007 -28.241460 -107.808133 26.729048 -27.750612 19.483402 2.563124 -21.306763 -3.617760 -33.536857 73.278599 -37.557386 6.269056 -13.421385 11.566023 -0.002039 -0.030859 -0.001278 -5.746155 -18.968919 5.899316 85.948983 83.117530 85.145267 0.530562 -21.851341 -16.690245 0.011193 0.012353 0.014979
-26.932306 57.966983 13.271806 178.383574 -50.173782 -3.624165 3.349940 22.490642 2.965852 1.719522 12.872064 1.505571 2.218386 16.082011 1.956799 1.719619 12.872010 1.505561 -2.486704 16.438983 3.345805 -5.773089 -5.017028 7.044709 0.328976 7.848576 -1.716207 -25.987939 -10.633106 4.406564 -67.463005 -26.084658 118.041136 -11.388195 -26.825184 -35.468355 -7.629724 4.631568 1.528642 20.134524 -7.964264 -0.280693 73.789751 -28.131881 -107.756151 26.756553 -27.777749 19.551546 2.567836 -21.298676 -3.628571 -33.534316 73.280864 -37.548533 6.275875 -13.424077 11.567307 -0.009693 -0.029757 -0.005526 -5.738448 -18.964549 5.897168 85.966124 83.115846 85.160907 0.520709 -21.853360 -16.683260 0.011872 0.012327 0.015226
-26.933322 57.967722 13.270484 178.387896 -50.179323 -3.626345 3.342459 22.489630 2.966926 1.717287 12.871671 1.507381 2.215530 16.081693 1.959105 1.716046 12.865090 1.522929 -2.252986 16.491888 3.244328 -5.307297 -4.959294 6.800548 0.382450 7.832319 -1.685546 -25.882883 -10.652369 4.345582 -67.373952 -25.980273 118.013634 -11.401856 -26.838939 -35.490497 -7.680104 4.613064 1.460989 19.934411 -8.006593 -0.230212 73.801988 -28.006797 -107.711012 26.785080 -27.805862 19.607773 2.569841 -21.290048 -3.632713 -33.547894 73.278340 -37.557932 6.287096 -13.427965 11.571860 -0.013631 -0.029391 -0.010572 -5.728239 -18.959513 5.898831 85.946843 83.116383 85.147380 0.510587 -21.853043 -16.678425 0.004926 0.013312 0.014137
-26.933975 57.968344 13.269394 178.391128 -50.184330 -3.628824 3.340796 22.488972 2.972387 1.714577 12.871535 1.510092 2.211697 16.076608 1.976402 1.712012 12.874326 1.504667 -2.010302 16.534338 3.162951 -4.830796 -4.901887 6.547746 0.395292 7.825959 -1.675057 -25.764847 -10.665117 4.332337 -67.279690 -25.883698 117.988396 -11.416609 -26.849628 -35.509600 -7.727686 4.588125 1.416495 19.743770 -8.047707 -0.182338 73.806200 -27.874248 -107.673952 26.812167 -27.833124 19.654339 2.567886 -21.283988 -3.633443 -33.564386 73.276180 -37.575895 6.302478 -13.431516 11.577335 -0.021119 -0.029448 -0.014641 -5.710573 -18.956299 5.902245 85.914113 83.123171 85.127453 0.505662 -21.850773 -16.674506 0.010175 0.012321 0.013783
-26.934900 57.969026 13.268324 178.394988 -50.190088 -3.628887 3.333773 22.489674 2.974319 1.713190 12.872127 1.513144 2.214432 16.078538 1.980573 1.706668 12.875808 1.499969 -1.760999 16.575852 3.077514 -4.345705 -4.847700 6.289008 0.435582 7.806006 -1.620026 -25.734617 -10.673544 4.272658 -67.128590 -25.779486 117.967641 -11.430446 -26.859972 -35.531252 -7.760286 4.570384 1.380252 19.553239 -8.087881 -0.145412 73.809495 -27.745068 -107.645079 26.833501 -27.859770 19.697511 2.565587 -21.276976 -3.637260 -33.575215 73.275419 -37.588928 6.315074 -13.435293 11.580388 -0.015318 -0.029602 -0.014548 -5.704762 -18.950585 5.902295 85.889217 83.125331 85.103733 0.503198 -21.846760 -16.673510 0.010475 0.010960 0.014734
-26.935829 57.969440 13.267570 178.399203 -50.193741 -3.627852 3.331204 22.487942 2.976414 1.712055 12.872946 1.516940 2.215405 16.083351 1.985406 1.710954 12.873814 1.519885 -1.524663 16.616282 2.966593 -3.854753 -4.799319 6.026553 0.434375 7.804134 -1.628027 -25.624948 -10.676231 4.270170 -67.041850 -25.707599 117.939513 -11.440038 -26.873812 -35.556282 -7.785019 4.562341 1.341030 19.359603 -8.128950 -0.127939 73.814971 -27.627768 -107.623368 26.846803 -27.884914 19.742198 2.560942 -21.274319 -3.641498 -33.581282 73.277615 -37.599657 6.320180 -13.435472 11.582666 -0.005009 -0.031166 -0.011086 -5.700009 -18.946327 5.902150 85.866213 83.131215 85.080901 0.502707 -21.844046 -16.671087 0.005411 0.010759 0.014422
-26.938599 57.969270 13.267181 178.376947 -50.194294 -3.594039 3.341773 22.486133 2.968359 1.710767 12.873505 1.519821 2.215041 16.089704 1.987061 1.708737 12.872889 1.519448 -1.274520 16.652479 2.873149 -3.360543 -4.757957 5.760842 0.431822 7.800158 -1.630532 -25.524852 -10.667784 4.285300 -66.944725 -25.645594 117.910789 -11.444385 -26.890206 -35.581517 -7.821303 4.535209 1.297674 19.203522 -8.155269 -0.081738 73.817947 -27.529431 -107.609281 26.855845 -27.907145 19.786976 2.578646 -21.271597 -3.662402 -33.568479 73.278285 -37.589544 6.329277 -13.417002 11.587068 -0.018796 -0.051457 -0.015651 -5.676464 -18.947750 5.888923 85.858535 83.136747 85.070933 0.495108 -21.858855 -16.668010 0.020701 0.023191 0.017397
